<svg xmlns="http://www.w3.org/2000/svg" viewBox="0 0 120 120" role="img" aria-label="CRBZ">
  <circle cx="60" cy="38" r="32" fill="#e53935" fill-opacity="0.92"/>
  <circle cx="40" cy="74" r="32" fill="#43a047" fill-opacity="0.92"/>
  <circle cx="80" cy="74" r="32" fill="#1e88e5" fill-opacity="0.92"/>
  <path d="M60 53.5c7.8 4.5 12.6 12.8 12.6 20.5h-25.2c0-7.7 4.8-16 12.6-20.5z" fill="#ffffff"/>
  <path d="M47.4 58.2c4.5-7.8 12.8-12.6 20.5-12.6v25.2c-7.7 0-16-4.8-20.5-12.6z" fill="#fdd835" fill-opacity="0.95"/>
  <path d="M72.6 58.2c-4.5-7.8-12.8-12.6-20.5-12.6v25.2c7.7 0 16-4.8 20.5-12.6z" fill="#d81b60" fill-opacity="0.95"/>
  <path d="M47.4 90.8c4.5 7.8 12.8 12.6 20.5 12.6V78.2c-7.7 0-16 4.8-20.5 12.6z" fill="#00acc1" fill-opacity="0.95"/>
</svg>
